<svg version="1.0" xmlns="http://www.w3.org/2000/svg" width="3840" height="1674.667" viewBox="0 0 2880 1256"><path d="M719.5 1.6c-18 3.2-26.2 6.9-44.5 19.7-14.2 10-35 20.7-61.9 31.7-18.4 7.6-27 10-36.1 10-3 0-15.2.9-27 2s-29.6 2.3-39.5 2.7c-28.2.9-46.4-2.5-64.5-12.2C423.2 43.3 422.1 43 387.5 42c-17.6-.5-33.8-1.6-43.5-2.9-8.5-1.1-30.3-3.4-48.5-5.1-62.6-5.8-90.4-9.7-115-15.9-13.8-3.5-33.9-10.2-39.9-13.4-3.2-1.7-5.9-2.2-12.1-2.2-7.3 0-8.8.3-15.5 3.7-4.1 2-12.7 7.8-19 12.8-31.5 24.9-33.2 26-54.1 37.1-15.2 8-31.1 17.3-36.7 21.5L0 80.1V1256h2880V137.8l-2.5 1.6c-28.3 18.6-43.2 22.4-96.8 25.1-41.8 2.1-47 2.9-95.7 13.5-62.2 13.5-87.1 16-167 16.5-51.4.3-55.2.6-69.5 5.5-15.8 5.4-39.6 10.7-82.9 18.5-14.3 2.5-34.1 6.4-44 8.5-35.2 7.5-47.7 8.3-89.1 5.5-12.1-.8-36.2-2.4-53.5-3.5-37.3-2.4-61.8-4.9-91.6-9.1-20.7-2.9-24-3.1-57.9-3.3-37.9-.3-52.7-1.6-77-6.6-20.9-4.3-31-8.1-50.3-19.2-23-13.1-29.6-15.2-71.2-22.3-101-17.3-128.1-25.4-202.6-61.3-32.8-15.7-44.9-21.1-66.4-29.2-60.4-22.6-113.4-29.1-160.5-19.5-16.3 3.3-27.6 7.2-50 17.2-47.1 21.1-49.2 21.9-80.1 31.6-6.1 1.9-17.8 6.3-25.9 9.7-24.8 10.4-47.7 15-74.5 15-9.1 0-17.7-.7-25.3-2-11.3-1.9-16.1-3.3-42.4-12.3-15.1-5.2-23.8-6.7-39.6-6.7-19.2 0-26.9-2-39.4-10.1-3.6-2.4-12.3-6.2-21-9.3C984.9 85 976.2 81 960.9 72c-13.3-7.9-18.4-10-38-15.9-15.5-4.6-30.8-10.8-54-21.6-42.7-20.1-68.5-29-94.7-33-13-1.9-43.6-1.9-54.7.1z" fill="#fff"/></svg>